<?xml version="1.0" encoding="utf-8"?>
<!-- Generator: Adobe Illustrator 17.1.0, SVG Export Plug-In . SVG Version: 6.00 Build 0)  -->
<!DOCTYPE svg PUBLIC "-//W3C//DTD SVG 1.0//EN" "http://www.w3.org/TR/2001/REC-SVG-20010904/DTD/svg10.dtd">
<svg version="1.0" id="Layer_1" xmlns="http://www.w3.org/2000/svg" xmlns:xlink="http://www.w3.org/1999/xlink" x="0px" y="0px"
	 viewBox="0 0 157.54 45.031"  xml:space="preserve">
<g id="layer1_2_" transform="translate(262.39556,-257.73049)">
	<g>
		<g id="g848_1_" transform="matrix(10,0,0,10,-319.46587,219.68361)">
			<path id="path850_1_" fill="#FFFFFF" d="M-72.162,7.27c-0.024-0.037-0.068-0.059-0.122-0.059h-0.391
				c-0.054,0-0.098,0.043-0.136,0.091l-1.133,1.366l-1.132-1.366c-0.038-0.049-0.081-0.091-0.136-0.091h-0.39
				c-0.054,0-0.099,0.022-0.123,0.059c-0.024,0.038-0.033,0.089-0.002,0.137l1.48,1.805v0.835c0,0.074,0.069,0.139,0.147,0.139
				h0.315c0.078,0,0.147-0.065,0.147-0.139V9.212l1.48-1.805C-72.127,7.359-72.137,7.308-72.162,7.27"/>
			<path id="path852_1_" fill="#FFFFFF" d="M-85.616,7.211h-2.137c-0.077,0-0.14,0.062-0.14,0.139v2.697
				c0,0.077,0.063,0.139,0.14,0.139h2.137c0.703,0,1.275-0.572,1.275-1.275V8.479C-84.342,7.78-84.913,7.211-85.616,7.211
				 M-85.616,9.584h-1.668V7.813h1.668c0.368,0,0.666,0.299,0.666,0.667v0.432C-84.951,9.282-85.249,9.584-85.616,9.584"/>
			<path id="path854_1_" fill="#FFFFFF" d="M-80.914,7.813c0.074,0,0.14-0.068,0.14-0.146V7.358c0-0.079-0.065-0.147-0.14-0.147
				h-2.675c-0.074,0-0.139,0.068-0.139,0.147v0.309c0,0.078,0.065,0.146,0.139,0.146h1.033v1.772h-1.033
				c-0.074,0-0.139,0.069-0.139,0.146v0.309c0,0.078,0.065,0.146,0.139,0.146h2.675c0.074,0,0.14-0.068,0.14-0.146V9.731
				c0-0.077-0.065-0.146-0.14-0.146h-1.033V7.813H-80.914z"/>
			<path id="path856_1_" fill="#FFFFFF" d="M-76.237,6.305c-0.027,0-0.068,0.009-0.11,0.052l-1.786,1.785l-1.785-1.785
				c-0.041-0.043-0.083-0.052-0.11-0.052c-0.068,0-0.115,0.053-0.115,0.129v0.53c0,0.054,0.022,0.087,0.051,0.117
				c0.024,0.024,1.641,1.632,1.666,1.657c0.032,0.032,0.086,0.055,0.132,0.055h0.325c0.045,0,0.1-0.023,0.133-0.055
				c0.024-0.024,1.641-1.632,1.665-1.657c0.029-0.03,0.051-0.063,0.051-0.117v-0.53C-76.121,6.358-76.168,6.305-76.237,6.305"/>
			<path id="path858_1_" fill="#FFFFFF" d="M-76.237,8.319c-0.027,0-0.068,0.01-0.11,0.053l-1.786,1.785l-1.785-1.785
				c-0.041-0.043-0.083-0.053-0.11-0.053c-0.068,0-0.115,0.054-0.115,0.13v0.529c0,0.054,0.022,0.088,0.051,0.117
				c0.024,0.024,1.641,1.633,1.666,1.657c0.032,0.032,0.086,0.054,0.132,0.054h0.325c0.045,0,0.1-0.022,0.133-0.054
				c0.024-0.024,1.641-1.633,1.665-1.657c0.029-0.029,0.051-0.064,0.051-0.117V8.45C-76.121,8.373-76.168,8.319-76.237,8.319"/>
		</g>
	</g>
</g>
<g id="layer1_1_" transform="translate(262.39556,-257.73049)">
	<g>
		<g id="g848_2_" transform="matrix(10,0,0,10,-319.46587,219.68361)">
			<path id="path850_2_" fill="#FFFFFF" d="M21.438,4.77c-0.024-0.037-0.068-0.059-0.122-0.059h-0.391
				c-0.054,0-0.098,0.043-0.136,0.091l-1.133,1.366l-1.132-1.366c-0.038-0.049-0.081-0.091-0.136-0.091h-0.39
				c-0.054,0-0.099,0.022-0.123,0.059c-0.024,0.038-0.033,0.089-0.002,0.137l1.48,1.805v0.835c0,0.074,0.069,0.139,0.147,0.139
				h0.315c0.078,0,0.147-0.065,0.147-0.139V6.712l1.48-1.805C21.473,4.859,21.463,4.808,21.438,4.77"/>
			<path id="path852_2_" fill="#FFFFFF" d="M7.984,4.711H5.847c-0.077,0-0.14,0.062-0.14,0.139v2.697
				c0,0.077,0.063,0.139,0.14,0.139h2.137c0.703,0,1.275-0.572,1.275-1.275V5.979C9.258,5.28,8.687,4.711,7.984,4.711 M7.984,7.084
				H6.316V5.313h1.668c0.368,0,0.666,0.299,0.666,0.667v0.432C8.649,6.782,8.351,7.084,7.984,7.084"/>
			<path id="path854_2_" fill="#FFFFFF" d="M12.686,5.313c0.074,0,0.14-0.068,0.14-0.146V4.858c0-0.079-0.065-0.147-0.14-0.147
				h-2.675c-0.074,0-0.139,0.068-0.139,0.147v0.309c0,0.078,0.065,0.146,0.139,0.146h1.033v1.772h-1.033
				c-0.074,0-0.139,0.069-0.139,0.146V7.54c0,0.078,0.065,0.146,0.139,0.146h2.675c0.074,0,0.14-0.068,0.14-0.146V7.231
				c0-0.077-0.065-0.146-0.14-0.146h-1.033V5.313H12.686z"/>
			<path id="path856_2_" fill="#FFFFFF" d="M17.363,3.805c-0.027,0-0.068,0.009-0.11,0.052l-1.786,1.785l-1.785-1.785
				c-0.041-0.043-0.083-0.052-0.11-0.052c-0.068,0-0.115,0.053-0.115,0.129v0.53c0,0.054,0.022,0.087,0.051,0.117
				c0.024,0.024,1.641,1.632,1.666,1.657c0.032,0.032,0.086,0.055,0.132,0.055h0.325c0.045,0,0.1-0.023,0.133-0.055
				c0.024-0.024,1.641-1.632,1.665-1.657c0.029-0.03,0.051-0.063,0.051-0.117v-0.53C17.479,3.858,17.432,3.805,17.363,3.805"/>
			<path id="path858_2_" fill="#FFFFFF" d="M17.363,5.819c-0.027,0-0.068,0.01-0.11,0.053l-1.786,1.785l-1.785-1.785
				c-0.041-0.043-0.083-0.053-0.11-0.053c-0.068,0-0.115,0.054-0.115,0.13v0.529c0,0.054,0.022,0.088,0.051,0.117
				c0.024,0.024,1.641,1.633,1.666,1.657c0.032,0.032,0.086,0.054,0.132,0.054h0.325c0.045,0,0.1-0.022,0.133-0.054
				c0.024-0.024,1.641-1.633,1.665-1.657c0.029-0.029,0.051-0.064,0.051-0.117V5.95C17.479,5.873,17.432,5.819,17.363,5.819"/>
		</g>
	</g>
</g>
</svg>
