<svg xmlns="http://www.w3.org/2000/svg" xmlns:xlink="http://www.w3.org/1999/xlink" version="1.1" id="Layer_1" x="0px" y="0px" viewBox="4.5 -9.0 90.0 121.5" enable-background="new 0 0 90 90" xml:space="preserve" height="100px" width="100px">
<path fill="#ffffff" d="M84.6,76.7c-0.3-3.8-4.1-8.2-11.4-13.4c-4.9-3.4-9.3-7-12.8-9.8c-2.7-2.1-4.9-3.9-6.7-5.2  c7.9-10.6,7-25.7-2.5-35.1c-5.1-5.1-11.8-7.9-19-7.9c-7.2,0-13.9,2.8-19,7.9c-5.1,5.1-7.9,11.8-7.9,19c0,7.2,2.8,13.9,7.9,19  c5.1,5.1,11.8,7.9,19,7.9c5.8,0,11.5-1.9,16.1-5.4c1.3,1.8,3.1,4.1,5.2,6.7c2.8,3.5,6.4,7.9,9.8,12.8c5.4,7.7,10,11.4,13.9,11.4  c1.8,0,3.5-0.8,5-2.3C84.1,80.6,84.8,78.8,84.6,76.7z M46.2,46.2c-3.7,3.7-8.7,5.8-14,5.8s-10.3-2.1-14-5.8c-7.7-7.7-7.7-20.3,0-28  c3.7-3.7,8.7-5.8,14-5.8c5.3,0,10.3,2.1,14,5.8C54,25.9,54,38.5,46.2,46.2z"/>
</svg>