<svg xmlns="http://www.w3.org/2000/svg" xmlns:xlink="http://www.w3.org/1999/xlink" version="1.1" id="Your_Icon" x="0px" y="0px" width="100px" height="100px" viewBox="5.0 -10.0 100.0 135.0" enable-background="new 0 0 100 100" xml:space="preserve">
<path fill="#ffffff" d="M44.596,17.373c0,0-3.217,0.256-2.782,3.795c0.402,3.559,1.489,5.625,4.988,7.328  c3.501,1.711,15.081,9.299,16.095,11.192c1.246,2.302-1.871,2.695-6.116-0.638c-4.258-3.342-33.321-23.78-40.708-28.748  C8.697,5.346,8.599,5.48,7.323,6.916c-1.26,1.44-1.429,2.843,1.061,4.444c2.491,1.623,12.982,11.47,19.249,16.478  c6.26,5.031,15.836,11.397,12.722,12.988c-3.123,1.629-9.976-7.309-12.93-9.471c-2.946-2.161-6.866-0.054-5.333,3.437  c1.536,3.526,4.038,5.992,7.418,8.469c3.369,2.467,7.742,5.043,6.027,6.804c-1.72,1.761-6.099-4.053-8.151-5.975  c-2.037-1.94-5.395-3.538-5.041,0.391c0.359,3.938,4.59,8.772,7.56,12.681c2.978,3.9,3.985,4.877,3.026,5.893  c-0.955,1.011-3.144-1.025-4.638-3.397c-1.487-2.399-2.744-5.684-3.869-4.146c-1.131,1.541-0.885,8.863,5.796,14.183  c6.683,5.333,25.195,15.44,29.56,17.133c4.389,1.685,7.599,3.179,8.704,4.64c1.086,1.456-0.022,4.739,3.18,4.498  c3.199-0.251,12.931-3.497,18.689-8.993c5.753-5.497,4.793-6.85,3.034-9.443c-1.785-2.596-8.249-16.168-9.95-22.396  c-1.705-6.224-5.111-15.414-18.891-23.138C50.774,24.266,47.374,20.057,44.596,17.373z"/>
<text x="0.0" y="117.5" font-size="5.0" font-weight="bold" font-family="Helvetica Neue, Helvetica, Arial-Unicode, Arial, Sans-serif" fill="#000000">Created by Dan Hetteix</text><text x="0.0" y="122.5" font-size="5.0" font-weight="bold" font-family="Helvetica Neue, Helvetica, Arial-Unicode, Arial, Sans-serif" fill="#000000">from the Noun Project</text></svg>