<?xml version="1.0" encoding="utf-8"?>
<!-- Generator: Adobe Illustrator 17.1.0, SVG Export Plug-In . SVG Version: 6.00 Build 0)  -->
<!DOCTYPE svg PUBLIC "-//W3C//DTD SVG 1.0//EN" "http://www.w3.org/TR/2001/REC-SVG-20010904/DTD/svg10.dtd">
<svg version="1.0" id="Layer_1" xmlns="http://www.w3.org/2000/svg" xmlns:xlink="http://www.w3.org/1999/xlink" x="0px" y="0px"
	 viewBox="0 0 52 52" enable-background="new 0 0 52 52" xml:space="preserve">
<g id="circle-delete_3_">
	<path fill="#FFFFFF" d="M26.005,0C11.66,0,0,11.66,0,25.996C0,40.331,11.66,52,26.005,52C40.34,52,52,40.331,52,25.996
		C52,11.66,40.34,0,26.005,0z M1.826,25.996c0-13.331,10.847-24.169,24.178-24.169c6.337,0,12.107,2.456,16.426,6.456L8.282,42.422
		C4.282,38.112,1.826,32.332,1.826,25.996z M26.005,50.174c-6.337,0-12.107-2.447-16.426-6.465l34.14-34.14
		c3.999,4.31,6.455,10.09,6.455,16.426C50.174,39.326,39.326,50.174,26.005,50.174z"/>
</g>
</svg>
